<?xml version="1.0" encoding="UTF-8" standalone="no"?>
<!DOCTYPE svg PUBLIC "-//W3C//DTD SVG 1.1//EN" "http://www.w3.org/Graphics/SVG/1.1/DTD/svg11.dtd">
<svg xmlns="http://www.w3.org/2000/svg" version="1.1" viewBox="0.00 0.00 974.00 974.00">
<path fill="#f4ab8b" d="
  M 264.59 547.42
  C 162.12 573.86 57.61 519.04 55.05 404.94
  C 52.10 273.97 153.82 154.72 261.93 93.51
  C 340.24 49.17 429.38 28.67 519.73 35.90
  C 679.81 48.71 823.60 143.20 893.74 288.51
  C 927.38 358.21 944.33 439.51 937.77 516.99
  C 931.79 587.58 904.40 669.54 837.67 705.09
  C 802.79 723.68 761.37 726.92 723.76 715.23
  C 688.66 704.32 660.90 679.30 650.67 643.32
  C 628.99 567.06 691.06 524.60 749.28 496.50
  A 1.16 1.16 0.0 0 0 749.70 494.76
  C 710.00 442.00 649.66 408.98 583.43 407.68
  C 527.07 406.56 476.67 425.40 431.48 458.20
  C 407.25 475.78 387.47 490.21 363.37 504.91
  C 332.64 523.66 299.24 538.48 264.59 547.42
  Z"
/>
<path fill="#0071b7" d="
  M 809.89 805.39
  C 748.40 868.54 671.49 910.58 585.83 931.01
  A 1.03 1.02 6.4 0 1 584.67 929.56
  Q 587.60 923.62 589.99 917.54
  C 606.60 875.14 591.52 829.29 554.67 803.61
  C 510.53 772.85 451.83 775.90 401.49 785.74
  Q 375.48 790.82 328.97 802.11
  C 251.87 820.83 167.22 806.83 111.22 747.16
  A 2.67 0.51 86.9 0 1 110.73 745.19
  C 110.65 744.38 111.83 744.02 112.58 744.12
  C 190.45 755.08 252.02 698.39 302.66 648.66
  Q 362.10 590.30 423.64 534.15
  C 488.21 475.22 574.15 435.31 658.47 483.65
  A 1.36 1.36 0.0 0 1 658.94 485.56
  Q 658.31 486.56 656.93 487.67
  C 615.88 520.72 587.37 570.12 591.45 624.49
  C 595.81 682.67 633.44 733.07 685.49 758.24
  Q 731.12 780.30 783.52 776.72
  C 802.71 775.41 819.81 770.75 837.55 765.51
  C 839.79 764.85 844.40 760.35 846.13 762.61
  Q 846.49 763.09 846.16 763.58
  Q 845.53 764.53 844.19 766.19
  Q 825.71 789.14 809.89 805.39
  Z"
/>
<path fill="#0071b7" d="
  M 136.03 689.67
  C 106.19 690.50 81.62 673.70 66.12 648.91
  C 41.85 610.08 35.87 562.27 31.97 517.63
  A 0.92 0.92 0.0 0 1 33.09 516.65
  Q 33.84 516.82 34.47 517.84
  C 83.94 596.98 181.96 621.74 268.78 602.34
  Q 269.66 602.14 270.52 602.36
  A 0.64 0.64 0.0 0 1 270.82 603.43
  C 244.23 630.84 214.55 658.81 180.95 676.70
  C 167.64 683.78 151.04 689.25 136.03 689.67
  Z"
/>
<path fill="#0071b7" d="
  M 427.50 938.49
  C 356.98 929.28 290.83 904.19 231.63 864.81
  A 1.36 1.36 0.0 0 1 232.29 862.33
  Q 236.06 862.07 240.32 862.29
  C 272.42 864.00 302.87 863.42 334.06 857.05
  C 370.53 849.59 406.84 839.60 444.18 836.10
  C 466.30 834.03 491.20 833.48 511.92 842.08
  C 536.83 852.42 548.93 877.91 536.15 902.67
  C 517.56 938.66 462.33 943.03 427.50 938.49
  Z"
/>
</svg>
